<svg width="28" height="28" viewBox="0 0 28 28" fill="none" xmlns="http://www.w3.org/2000/svg">
<path fill-rule="evenodd" clip-rule="evenodd" d="M14 6C14.5523 6 15 6.37449 15 6.83645V20.1636C15 20.6255 14.5523 21 14 21C13.4477 21 13 20.6255 13 20.1636V6.83645C13 6.37449 13.4477 6 14 6Z" fill="white"/>
<path d="M13.2914 21.2871C12.9009 20.8966 12.9009 20.2634 13.2914 19.8729L19.6568 13.5075C20.0473 13.117 20.6805 13.117 21.071 13.5075V13.5075C21.4615 13.898 21.4615 14.5312 21.071 14.9217L14.7056 21.2871C14.3151 21.6776 13.6819 21.6776 13.2914 21.2871V21.2871Z" fill="white"/>
<path d="M6.92894 13.5071C7.31946 13.1166 7.95263 13.1166 8.34315 13.5071L14.7075 19.8715C15.098 20.262 15.098 20.8951 14.7075 21.2857V21.2857C14.317 21.6762 13.6838 21.6762 13.2933 21.2857L6.92894 14.9213C6.53842 14.5308 6.53842 13.8976 6.92894 13.5071V13.5071Z" fill="white"/>
</svg>
