<svg width="200" height="200" viewBox="0 0 200 200" fill="none" xmlns="http://www.w3.org/2000/svg">
<mask id="mask0_635_2163" style="mask-type:alpha" maskUnits="userSpaceOnUse" x="0" y="0" width="200" height="200">
<rect width="200" height="200" fill="#D9D9D9"/>
</mask>
<g mask="url(#mask0_635_2163)">
<path d="M71.2142 189.727C67.8794 188.65 66.1862 186.734 67.0686 184.004C67.2725 183.343 67.6755 182.761 68.2226 182.338C68.7697 181.914 69.4342 181.67 70.1252 181.639C69.5149 181.199 69.0574 180.579 68.8165 179.867C68.5756 179.154 68.5635 178.384 68.7817 177.664C69.672 174.913 72.0609 174.198 75.4951 175.307L81.6917 177.294L77.0571 191.604L71.2142 189.727ZM75.0221 188.181L76.1231 184.838L73.1977 183.892C71.7747 183.431 70.5783 183.372 70.1252 184.763C69.672 186.154 70.7134 186.782 72.1125 187.239L75.0221 188.181ZM76.918 182.334L78.031 178.9L74.8512 177.855C73.2612 177.346 72.1642 177.39 71.723 178.761C71.2818 180.132 72.1483 180.788 73.7382 181.301L76.918 182.334Z" fill="#E4DED1"/>
<path d="M52.2984 163.176L61.6947 169.361L53.4193 181.937L44.0945 175.8L45.6089 173.499L52.4256 177.986L54.2579 175.204L47.7552 170.923L49.2696 168.622L55.7723 172.902L57.6762 170.009L50.788 165.478L52.2984 163.176Z" fill="#E4DED1"/>
<path d="M28.6127 156.84L31.7369 160.302L40.8232 152.07L42.8305 154.296L33.7442 162.508L36.8643 165.982L34.7855 167.85L26.5339 158.708L28.6127 156.84Z" fill="#E4DED1"/>
<path d="M16.6368 136.859L18.7911 140.997L29.6462 135.341L31.0334 138L20.1783 143.652L22.3326 147.79L19.8444 149.085L14.1526 138.159L16.6368 136.859Z" fill="#E4DED1"/>
<path d="M22.1338 112.207L24.6379 123.166L9.97104 126.517L7.48682 115.642L10.1698 115.03L11.9862 122.979L15.2336 122.236L13.5006 114.652L16.1836 114.04L17.9166 121.624L21.2713 120.857L19.4349 112.824L22.1338 112.207Z" fill="#E4DED1"/>
<path d="M6.48925 95.5217C6.63234 91.9444 8.40508 90.0803 11.2868 90.1916C13.7551 90.2909 15.3728 92.0756 15.5398 94.9613L21.7523 90.589L21.6092 94.218L15.4444 98.3637L15.4086 99.2421L21.3906 99.4806L21.2714 102.478L6.23486 101.877L6.48925 95.5217ZM9.11657 98.9957L12.8012 99.1427L12.9323 95.8357C12.9959 94.2021 12.4275 93.3316 11.1636 93.2799C9.89959 93.2283 9.31133 94.0987 9.24773 95.6886L9.11657 98.9957Z" fill="#E4DED1"/>
<path d="M25.1269 60.7264L30.4372 63.3776L29.0977 66.0605L23.7795 63.4054L13.0476 64.5223L14.6375 61.3664L22.0425 60.8337L18.02 54.5973L19.5463 51.5407L25.1269 60.7264Z" fill="#E4DED1"/>
<path d="M41.6498 36.063C44.9767 39.0759 45.2271 43.7263 42.1228 47.1565C39.0185 50.5868 34.372 50.7895 31.0412 47.7766C27.7103 44.7637 27.4639 40.1212 30.5602 36.687C33.6566 33.2528 38.319 33.0501 41.6498 36.063ZM33.1399 45.4593C35.3061 47.4189 38.1361 47.2718 39.9884 45.2248C41.8406 43.1778 41.7095 40.3478 39.5551 38.3922C37.4008 36.4366 34.5668 36.5718 32.7066 38.6267C30.8464 40.6817 30.9736 43.4998 33.1399 45.4593Z" fill="#E4DED1"/>
<path d="M62.3465 23.6856C64.4929 27.2629 63.3084 30.4427 60.0332 32.4022C56.758 34.3618 53.3914 33.9286 51.249 30.3672L46.5906 22.6243L49.1702 21.0742L53.7451 28.6938C55.021 30.8123 56.7739 31.019 58.5506 29.9498C60.3273 28.8806 60.9633 27.2311 59.6914 25.1125L55.1085 17.5009L57.6881 15.9507L62.3465 23.6856Z" fill="#E4DED1"/>
<path d="M76.8821 8.86353C80.3521 7.92946 82.6495 9.0742 83.4007 11.8565C84.0446 14.2414 82.8204 16.3242 80.0977 17.3457L86.1393 21.9683L82.6296 22.9143L76.8384 18.2678L75.9878 18.4984L77.5419 24.2856L74.6443 25.0806L70.7332 10.5409L76.8821 8.86353ZM74.3502 12.405L75.3081 15.9823L78.4879 15.1238C80.0778 14.6985 80.7297 13.8956 80.3998 12.6714C80.0699 11.4471 79.0682 11.149 77.53 11.5624L74.3502 12.405Z" fill="#E4DED1"/>
<path d="M161.58 170.625L152.677 177.469L143.515 165.545L152.363 158.752L154.028 160.926L147.557 165.895L149.589 168.538L155.769 163.796L157.443 165.982L151.27 170.716L153.377 173.463L159.915 168.443L161.58 170.625Z" fill="#E4DED1"/>
<path d="M175.647 155.079L173.445 157.981L158.051 153.378L159.983 150.838L172.145 154.67L165.209 143.962L167.093 141.482L175.647 155.079Z" fill="#E4DED1"/>
<path d="M188.963 129.653L184.745 140.083L170.782 134.434L174.967 124.1L177.519 125.133L174.459 132.685L177.551 133.934L180.472 126.711L183.024 127.745L180.107 134.979L183.318 136.279L186.411 128.619L188.963 129.653Z" fill="#E4DED1"/>
<path d="M178.036 108.773C178.465 105.196 180.381 103.503 183.239 103.848C185.691 104.143 187.162 106.054 187.094 108.956L193.633 105.081L193.2 108.686L186.733 112.323L186.629 113.197L192.583 113.913L192.226 116.89L177.277 115.105L178.036 108.773ZM180.377 112.442L184.034 112.883L184.431 109.6C184.626 107.978 184.129 107.064 182.873 106.913C181.617 106.762 180.965 107.581 180.774 109.159L180.377 112.442Z" fill="#E4DED1"/>
<path d="M186.59 86.6301L192.468 85.8352L192.866 88.8083L186.975 89.6033L178.751 96.5869L178.27 93.0931L184.085 88.4744L177.241 85.5927L176.776 82.2062L186.59 86.6301Z" fill="#E4DED1"/>
<path d="M172.098 69.0574C170.202 64.7488 171.7 60.7104 175.838 58.8741C179.976 57.0378 183.978 58.6873 185.874 62.9959L188.374 68.6719L174.598 74.7334L172.098 69.0574ZM175.957 70.862L184.598 67.0621L183.322 64.1605C182.046 61.259 179.606 60.6508 177.106 61.7518C174.606 62.8528 173.405 65.0588 174.681 67.9644L175.957 70.862Z" fill="#E4DED1"/>
<path d="M167.375 34.8745L169.415 37.3428L167.546 40.5862L171.632 45.5467L175.17 44.3265L177.157 46.7392L161.827 51.7871L159.501 48.969L167.375 34.8745ZM168.842 46.4967L166.06 43.138L162.96 48.5119L168.842 46.4967Z" fill="#E4DED1"/>
<path d="M150.598 28.6939L154.104 23.9242L156.524 25.673L153.011 30.4706L152.303 41.2422L149.457 39.1594L150.181 31.7703L143.352 34.6878L140.594 32.6686L150.598 28.6939Z" fill="#E4DED1"/>
</g>
</svg>
